<?xml version="1.0" encoding="UTF-8"?><svg xmlns="http://www.w3.org/2000/svg" viewBox="0 0 1163.52 1232"><defs><style>.d{opacity:.6;}.e{fill:#960000;}</style></defs><g id="a"/><g id="b"><g id="c"><g class="d"><g><path class="e" d="M987,0c-33.41,0-60.5,27.09-60.5,60.5s27.09,60.5,60.5,60.5,60.5-27.09,60.5-60.5c-.04-33.4-27.1-60.46-60.5-60.5h0Zm56.6,54.35c-13.42-3.27-27.15-5.08-40.96-5.4-8.25,.08-16.48,.91-24.58,2.48-10.39,1.97-20.94,2.96-31.51,2.95-5.36-.03-10.7-.57-15.95-1.6,1.27-9.36,4.86-18.25,10.45-25.86,14.64,1.67,29.37,2.47,44.11,2.41,15.87,.1,31.72-.85,47.46-2.85,6.1,8.14,9.89,17.77,10.98,27.88h0ZM987,3.56c16.51,0,32.2,7.18,42.99,19.67-14.88,1.77-29.85,2.61-44.83,2.53-13.87,.05-27.72-.66-41.51-2.12,10.8-12.74,26.65-20.08,43.34-20.08h0Zm0,113.88c-20.43-.02-39.29-10.97-49.42-28.71,1.36,.28,2.78,.57,4.22,.87,8.85,1.84,18.88,3.93,27.88,3.93,10.14,.08,20.26-.92,30.19-3.01,7.34-1.59,14.83-2.41,22.35-2.43,4.71,.03,9.41,.31,14.08,.85-10.16,17.62-28.95,28.49-49.3,28.5h0Zm51.11-31.88c-5.27-.65-10.58-1-15.9-1.03-7.74,.02-15.45,.86-23.01,2.49-9.71,2.04-19.61,3.03-29.52,2.94-8.63,0-18.47-2.05-27.15-3.85-2.48-.52-4.83-1-7.06-1.42-3.57-7.56-5.42-15.83-5.41-24.19,0-1.4,.07-2.79,.17-4.17,5.38,1.03,10.84,1.57,16.32,1.6,10.77,0,21.52-1,32.1-3,7.91-1.54,15.94-2.36,23.99-2.44,15.36,0,31.99,3.36,41.23,5.57,.03,.81,.06,1.62,.06,2.43,0,8.69-1.98,17.27-5.83,25.06h0Z"/><path class="e" d="M1017.98,33.36c-2.95,0-5.34,2.39-5.34,5.34s2.39,5.34,5.34,5.34,5.34-2.39,5.34-5.34-2.39-5.34-5.34-5.34h0Zm0,7.12c-.98,0-1.78-.8-1.78-1.78s.8-1.78,1.78-1.78,1.78,.8,1.78,1.78-.8,1.78-1.78,1.78h0Z"/><path class="e" d="M978.6,20.47c2.95,0,5.34-2.39,5.34-5.34s-2.39-5.34-5.34-5.34-5.34,2.39-5.34,5.34,2.39,5.34,5.34,5.34h0Zm0-7.12c.98,0,1.78,.8,1.78,1.78s-.8,1.78-1.78,1.78-1.78-.8-1.78-1.78,.8-1.78,1.78-1.78h0Z"/><path class="e" d="M997.08,98.64c-2.95,0-5.34,2.39-5.34,5.34s2.39,5.34,5.34,5.34,5.34-2.39,5.34-5.34-2.39-5.34-5.34-5.34h0Zm0,7.12c-.98,0-1.78-.8-1.78-1.78s.8-1.78,1.78-1.78,1.78,.8,1.78,1.78-.8,1.78-1.78,1.78h0Z"/><path class="e" d="M972.4,63.84c-5.03,0-9.12,4.08-9.12,9.12s4.08,9.12,9.12,9.12,9.12-4.08,9.12-9.12h0c0-5.03-4.08-9.11-9.12-9.12h0Zm0,14.67c-3.07,0-5.56-2.49-5.56-5.56s2.49-5.56,5.56-5.56,5.56,2.49,5.56,5.55c0,3.07-2.49,5.55-5.56,5.56h0Z"/></g><g><path class="e" d="M316.31,100.68h-16.81v-2.4c0-.66-.54-1.2-1.2-1.2s-1.2,.54-1.2,1.2v2.4h-16.81c-.66,0-1.2,.54-1.2,1.2s.54,1.2,1.2,1.2h16.81v3.6h-1.2c-1.33,0-2.4,1.08-2.4,2.4v1.42l-5.05-.82c-14.95-2.41-30.18-2.41-45.13,0l-5.05,.82v-1.42c0-1.33-1.08-2.4-2.4-2.4h-1.2v-3.6h16.81c.66,0,1.2-.54,1.2-1.2s-.54-1.2-1.2-1.2h-16.81v-2.4c0-.66-.54-1.2-1.2-1.2s-1.2,.54-1.2,1.2v2.4h-16.81c-.66,0-1.2,.54-1.2,1.2s.54,1.2,1.2,1.2h16.81v3.6h-1.2c-1.33,0-2.4,1.08-2.4,2.4v2.96l-2.82,.45c-2.83,.44-4.76,3.08-4.32,5.91,.35,2.28,2.18,4.05,4.47,4.34l7.28,.96c3.46,.46,6.86,1.26,10.17,2.39l1.48,.51c1.74,.6,3.45,1.29,5.12,2.07l-6.96,17.4v12.24h2.4v-11.78l6.72-16.8c.15,.08,.31,.15,.46,.24l.96,.51c1.74,.92,3.68,1.41,5.65,1.41h5.41v3.6h-6c-1.99,0-3.6,1.61-3.6,3.6v9.61c0,1.99,1.61,3.6,3.6,3.6h14.41c1.99,0,3.6-1.61,3.6-3.6v-9.61c0-1.99-1.61-3.6-3.6-3.6h-6v-3.6h5.41c1.97,0,3.91-.49,5.64-1.41l.96-.52c.15-.08,.31-.15,.46-.24l6.73,16.81v11.78h2.4v-12.24l-6.96-17.4c1.67-.78,3.38-1.46,5.12-2.06l1.49-.51c3.3-1.13,6.7-1.93,10.16-2.38l7.28-.96c2.84-.36,4.85-2.95,4.49-5.79-.29-2.29-2.06-4.11-4.34-4.47l-2.82-.46v-2.96c0-1.33-1.08-2.4-2.4-2.4h-1.2v-3.6h16.81c.66,0,1.2-.54,1.2-1.2s-.54-1.2-1.2-1.2h0Zm-43.23,37.23c.66,0,1.2,.54,1.2,1.2v9.61c0,.66-.54,1.2-1.2,1.2h-14.41c-.66,0-1.2-.54-1.2-1.2v-9.61c0-.66,.54-1.2,1.2-1.2h14.41Zm-42.03-28.82h4.8v1.8l-4.8,.77v-2.57h0Zm76.85,8.57c.02,1.41-1.05,2.59-2.45,2.72l-7.28,.96c-3.61,.48-7.17,1.31-10.62,2.49l-1.48,.51c-2.79,.95-5.5,2.13-8.1,3.52l-.96,.52c-1.39,.74-2.95,1.13-4.53,1.13h-13.23c-1.58,0-3.13-.39-4.52-1.13l-.96-.51c-2.6-1.39-5.31-2.56-8.1-3.52l-1.48-.51c-3.45-1.18-7.01-2.01-10.62-2.49l-7.28-.96c-1.52-.18-2.61-1.57-2.42-3.09,.15-1.24,1.11-2.23,2.35-2.41l17.48-2.81c14.69-2.37,29.67-2.37,44.36,0l17.47,2.81c1.4,.17,2.43,1.38,2.37,2.78h0Zm-7.2-8.57v2.58l-4.8-.78v-1.8h4.8Z"/><path class="e" d="M261.68,143.91c0,2.32,1.88,4.2,4.2,4.2s4.2-1.88,4.2-4.2-1.88-4.2-4.2-4.2-4.2,1.88-4.2,4.2h0Zm6,0c0,.99-.81,1.8-1.8,1.8s-1.8-.81-1.8-1.8,.81-1.8,1.8-1.8,1.8,.81,1.8,1.8h0Z"/></g><g><path class="e" d="M1012.28,654.1l-10.57-1.04,.15-1.51c.04-.42-.26-.79-.68-.83s-.79,.26-.83,.68l-.15,1.51-10.57-1.04c-.42-.04-.79,.26-.83,.68s.26,.79,.68,.83l10.57,1.04-.22,2.27-.76-.07c-.83-.08-1.58,.53-1.66,1.36l-.09,.89-3.13-.83c-9.25-2.44-18.83-3.38-28.38-2.79l-3.23,.2,.09-.89c.08-.83-.53-1.58-1.36-1.66l-.76-.07,.22-2.27,10.57,1.04c.42,.04,.79-.26,.83-.68s-.26-.79-.68-.83l-10.57-1.04,.15-1.51c.04-.42-.26-.79-.68-.83s-.79,.26-.83,.68l-.15,1.51-10.57-1.04c-.42-.04-.79,.26-.83,.68s.26,.79,.68,.83l10.57,1.04-.22,2.27-.76-.07c-.83-.08-1.58,.53-1.66,1.36l-.18,1.86-1.8,.11c-1.8,.1-3.19,1.65-3.08,3.45,.08,1.46,1.12,2.68,2.54,3.01l4.52,1.05c2.15,.5,4.24,1.22,6.25,2.13l.9,.41c1.06,.48,2.09,1.02,3.09,1.62l-5.46,10.51-.76,7.7,1.51,.15,.73-7.41,5.27-10.15c.09,.06,.19,.12,.28,.18l.57,.38c1.04,.69,2.23,1.11,3.47,1.24l3.4,.34-.22,2.27-3.78-.37c-1.25-.12-2.37,.79-2.49,2.04l-.59,6.04c-.12,1.25,.79,2.37,2.04,2.49l9.06,.89c1.25,.12,2.37-.79,2.49-2.04l.59-6.04c.12-1.25-.79-2.37-2.04-2.49l-3.78-.37,.22-2.27,3.4,.34c1.24,.12,2.49-.06,3.64-.54l.64-.26c.1-.04,.21-.08,.31-.12l3.19,10.99-.73,7.41,1.51,.15,.76-7.7-3.3-11.38c1.1-.38,2.22-.71,3.35-.98l.97-.23c2.15-.51,4.34-.8,6.54-.87l4.64-.15c1.81-.05,3.23-1.55,3.18-3.36-.04-1.46-1.04-2.72-2.45-3.08l-1.74-.47,.18-1.86c.08-.83-.53-1.58-1.36-1.66l-.76-.07,.22-2.27,10.57,1.04c.42,.04,.79-.26,.83-.68s-.26-.79-.68-.83h0Zm-29.49,20.74c.42,.04,.72,.41,.68,.83l-.59,6.04c-.04,.42-.41,.72-.83,.68l-9.06-.89c-.42-.04-.72-.41-.68-.83l.59-6.04c.04-.42,.41-.72,.83-.68l9.06,.89h0Zm-24.65-20.73l3.02,.3-.11,1.13-3.07,.19,.16-1.62h0Zm47.81,10.15c-.07,.89-.82,1.56-1.71,1.56l-4.64,.15c-2.3,.08-4.59,.38-6.83,.91l-.96,.23c-1.81,.43-3.59,1-5.31,1.71l-.64,.26c-.92,.38-1.92,.53-2.92,.43l-8.32-.82c-.99-.1-1.94-.44-2.77-.99l-.57-.38c-1.55-1.03-3.18-1.94-4.88-2.71l-.9-.41c-2.1-.95-4.28-1.7-6.53-2.23l-4.52-1.05c-.95-.21-1.54-1.15-1.33-2.09,.17-.77,.84-1.33,1.62-1.37l11.17-.69c9.39-.58,18.81,.35,27.9,2.75l10.82,2.85c.87,.19,1.44,1.02,1.32,1.9h0Zm-4-5.84l-.16,1.62-2.97-.79,.11-1.13,3.02,.3h0Z"/><path class="e" d="M975.23,677.91c-.14,1.46,.92,2.76,2.38,2.9s2.76-.92,2.9-2.38-.92-2.76-2.38-2.9-2.76,.92-2.9,2.38h0Zm3.78,.37c-.06,.63-.62,1.08-1.24,1.02s-1.08-.62-1.02-1.24,.62-1.08,1.24-1.02,1.08,.62,1.02,1.24h0Z"/></g><path class="e" d="M104.27,322.61c4.06,.05,8.08-.66,11.88-2.09v-1.57c-3.67,1.55-7.62,2.31-11.6,2.22-6.32,0-11.39-1.92-15.07-5.71s-5.54-8.89-5.54-15.16,1.95-11.43,5.8-15.62c3.86-4.2,8.92-6.33,15.03-6.33s11.2,1.74,14.69,5.18c3.5,3.44,5.27,8.1,5.27,13.85,0,3.8-.79,6.95-2.36,9.38-1.61,2.5-3.69,3.76-6.19,3.76-1.41,.08-2.77-.55-3.61-1.69-.79-1.11-1.2-2.78-1.2-4.97l1.4-16.03h-1.55c-.1,1.06-.26,2.86-.32,3.82v.05l-.24,.03-.02-.05c-.6-1.29-1.53-2.4-2.71-3.2-1.08-.7-2.34-1.06-3.62-1.05-3.22-.06-6.26,1.48-8.12,4.11-2.08,2.77-3.13,6.27-3.13,10.44,0,3.05,.74,5.51,2.2,7.31,1.44,1.77,3.63,2.76,5.91,2.67,3.66,0,6.96-2.7,8.6-7.04l.02-.05,.24,.04v.05c.31,4.51,2.54,7,6.3,7,2.86,0,5.29-1.38,7.22-4.11,1.96-2.78,2.96-6.39,2.96-10.75,0-5.83-1.97-10.7-5.85-14.48-3.88-3.78-9.13-5.7-15.61-5.7s-12.03,2.25-16.36,6.7c-4.34,4.45-6.54,10.06-6.54,16.68s2.03,12.03,6.04,16.13c4.01,4.1,9.42,6.18,16.07,6.18h0Zm3.74-16.26c-1.6,2.77-3.8,4.17-6.54,4.17-1.94,.07-3.78-.84-4.9-2.43-1.14-1.57-1.72-3.7-1.72-6.34,0-3.84,.84-6.97,2.5-9.31,1.52-2.3,4.12-3.66,6.87-3.6,1.71-.08,3.36,.61,4.5,1.87,1.08,1.22,1.63,3.02,1.63,5.34,0,4.15-.79,7.61-2.34,10.29h0Z"/><g><path class="e" d="M1035.07,989.39c13.16-9.51,20.11-19.63,17.19-27.02-2.92-7.38-14.93-10-31.03-7.92-1.65-16.15-6.95-27.24-14.8-28.39-7.86-1.16-16.13,7.93-22.37,22.91-14.81-6.65-27.06-7.6-31.99-1.38-4.93,6.23-1.2,17.93,8.66,30.83-13.16,9.51-20.11,19.63-17.19,27.02,1.73,4.38,6.65,7.08,13.73,8.12,5.75,.71,11.57,.63,17.3-.21,1.65,16.15,6.95,27.24,14.81,28.4s16.13-7.93,22.37-22.92c5.24,2.47,10.79,4.21,16.5,5.2,7.07,1.04,12.56-.13,15.49-3.82,4.93-6.23,1.2-17.93-8.66-30.83h0Zm3.28-32.2c5.8,.85,9.79,2.94,11.12,6.28,2.38,6.01-4.32,14.96-16.28,23.53-3.62-4.41-7.53-8.57-11.7-12.45,.39-5.69,.39-11.39,0-17.08,5.58-.86,11.25-.95,16.86-.29h0Zm-33.28,44.84c-3.5,1.38-6.97,2.61-10.39,3.68-2.97-2.01-5.94-4.19-8.89-6.53-2.95-2.33-5.75-4.73-8.39-7.16,.26-3.57,.66-7.24,1.21-10.96,.55-3.72,1.22-7.35,2.01-10.84,3.22-1.56,6.6-3.05,10.1-4.43,3.49-1.39,6.98-2.61,10.4-3.68,2.96,2.01,5.94,4.19,8.89,6.53,2.95,2.33,5.75,4.73,8.39,7.16-.26,3.57-.66,7.24-1.21,10.96s-1.22,7.35-2.01,10.84c-3.22,1.56-6.6,3.05-10.1,4.43h0Zm9.2-.68c-1.13,4.54-2.52,9-4.16,13.38-4.2-2.07-8.27-4.38-12.21-6.91,2.73-.91,5.49-1.9,8.28-3.01,2.79-1.1,5.48-2.26,8.09-3.47h0Zm-23.28,5.46c-4.5,1.29-9.07,2.32-13.68,3.09-.3-4.67-.35-9.34-.12-14.01,2.15,1.9,4.39,3.79,6.75,5.66,2.35,1.86,4.71,3.61,7.06,5.27h0Zm-16.38-17.44c-3.36-3.25-6.54-6.69-9.51-10.3,3.89-2.6,7.92-4.97,12.08-7.11-.58,2.81-1.08,5.7-1.52,8.67-.44,2.97-.78,5.88-1.04,8.74h0Zm6.92-22.9c1.13-4.54,2.52-9,4.16-13.38,4.19,2.07,8.27,4.37,12.2,6.9-2.72,.91-5.48,1.91-8.27,3.01-2.79,1.1-5.48,2.26-8.09,3.47h0Zm23.29-5.46c4.5-1.28,9.06-2.31,13.67-3.08,.3,4.66,.34,9.34,.12,14.01-2.15-1.9-4.39-3.79-6.75-5.66-2.35-1.86-4.7-3.62-7.05-5.27h0Zm16.37,17.44c3.36,3.25,6.54,6.69,9.51,10.3-3.89,2.6-7.92,4.97-12.08,7.11,.58-2.81,1.08-5.7,1.53-8.67,.44-2.97,.78-5.88,1.04-8.74h0Zm-15.2-49.42c6.4,.94,10.79,11.22,12.24,25.87-5.63,.93-11.18,2.23-16.63,3.91-4.73-3.18-9.68-6.03-14.79-8.55,5.61-13.61,12.79-22.18,19.18-21.23h0Zm-51.57,20.43c4.02-5.07,15.11-3.74,28.52,2.33-2.01,5.34-3.66,10.8-4.93,16.36-5.12,2.51-10.06,5.36-14.8,8.54-8.98-11.66-12.81-22.16-8.8-27.23h0Zm-8.09,54.88c-2.38-6.01,4.32-14.96,16.28-23.53,3.62,4.41,7.53,8.57,11.7,12.45-.39,5.69-.39,11.4,0,17.08-14.59,1.94-25.6,.01-27.98-6h0Zm43.48,34.45c-6.4-.94-10.79-11.22-12.24-25.87,5.63-.93,11.18-2.24,16.63-3.91,4.73,3.18,9.68,6.04,14.79,8.55-5.61,13.61-12.79,22.18-19.19,21.24h0Zm51.57-20.43c-4.02,5.07-15.11,3.74-28.52-2.33,2.01-5.34,3.66-10.8,4.93-16.36,5.12-2.51,10.06-5.36,14.8-8.54,8.98,11.66,12.81,22.16,8.8,27.23h0Z"/><path class="e" d="M999.21,975c-4.92-.72-9.49,2.67-10.21,7.59-.72,4.91,2.67,9.49,7.59,10.21s9.49-2.67,10.21-7.59c.72-4.91-2.68-9.48-7.59-10.21h0Zm-2.19,14.83c-3.28-.48-5.54-3.53-5.06-6.81s3.53-5.54,6.81-5.06,5.54,3.53,5.06,6.81c-.49,3.27-3.53,5.54-6.81,5.06h0Z"/></g><g><path class="e" d="M688.88,188.34c1.23,0,2.23,1,2.23,2.23v44.66c0,1.23-1,2.23-2.23,2.23h-13.4v12.47l-11.26-11.26-.65-.65h-41.67c-1.23,0-2.23-1-2.23-2.23v-45.21c0-1.23,1-2.23,2.23-2.23h66.98m0-2.23h-66.98c-2.47,0-4.47,2-4.47,4.47v45.21c0,2.47,2,4.47,4.47,4.47h40.75l15.07,15.07v-15.63h11.16c2.47,0,4.47-2,4.47-4.47v-44.66c0-2.47-2-4.47-4.47-4.47h0Z"/><path class="e" d="M676.6,212.9c0,1.85-1.5,3.35-3.35,3.35s-3.35-1.5-3.35-3.35,1.5-3.35,3.35-3.35,3.35,1.5,3.35,3.35h0Z"/><path class="e" d="M658.74,212.9c0,1.85-1.5,3.35-3.35,3.35s-3.35-1.5-3.35-3.35,1.5-3.35,3.35-3.35,3.35,1.5,3.35,3.35h0Z"/><path class="e" d="M640.88,212.9c0,1.85-1.5,3.35-3.35,3.35s-3.35-1.5-3.35-3.35,1.5-3.35,3.35-3.35,3.35,1.5,3.35,3.35h0Z"/></g><g><path class="e" d="M180.2,1211.69c0,3.15,2.55,5.71,5.71,5.71,3.15,0,5.71-2.55,5.71-5.71,0-3.15-2.55-5.71-5.71-5.71h0c-3.15,0-5.7,2.55-5.71,5.71h0Zm8.9,0c0,1.76-1.43,3.19-3.19,3.19-1.76,0-3.19-1.43-3.19-3.19,0-1.76,1.43-3.19,3.19-3.19h0c1.76,0,3.19,1.43,3.19,3.19h0Z"/><path class="e" d="M196,1222.39c-1.64-1.26-3.52-2.19-5.52-2.71-1.51-.46-3.08-.7-4.66-.7-1.58,.02-3.15,.26-4.66,.7-1.98,.59-3.85,1.5-5.52,2.71-.7,.55-1.11,1.39-1.13,2.27v5.7h22.62v-5.71c-.02-.89-.43-1.72-1.13-2.27h0Zm-1.38,5.46h-17.6v-3.14c0-.13,.06-.25,.15-.34,1.42-1.02,3.01-1.8,4.69-2.3,1.29-.38,2.63-.58,3.98-.6,1.33,0,2.64,.2,3.91,.59l.1,.03c1.67,.44,3.23,1.2,4.6,2.26,.1,.07,.16,.18,.18,.3v3.19Z"/><path class="e" d="M205.16,1211.69c0,3.15,2.55,5.71,5.71,5.71s5.71-2.55,5.71-5.71c0-3.15-2.55-5.71-5.71-5.71h0c-3.15,0-5.71,2.55-5.71,5.71h0Zm8.9,0c0,1.76-1.43,3.19-3.19,3.19-1.76,0-3.19-1.43-3.19-3.19,0-1.76,1.43-3.19,3.19-3.19h0c1.76,0,3.19,1.43,3.19,3.19h0Z"/><path class="e" d="M221.14,1222.39c-1.64-1.26-3.52-2.19-5.52-2.71-1.51-.46-3.08-.7-4.66-.7-1.58,.02-3.15,.26-4.66,.7-1.98,.59-3.85,1.5-5.52,2.71-.7,.55-1.11,1.39-1.13,2.27v5.7h22.62v-5.71c-.02-.89-.43-1.72-1.13-2.27h0Zm-1.38,5.46h-17.59v-3.14c0-.13,.06-.25,.15-.34,1.42-1.02,3.01-1.8,4.69-2.3,1.29-.38,2.63-.58,3.98-.6,1.33,0,2.64,.2,3.91,.59l.1,.03c1.67,.44,3.23,1.2,4.6,2.26,.1,.07,.16,.18,.18,.3v3.19Z"/><path class="e" d="M230.3,1211.69c0,3.15,2.55,5.71,5.71,5.71,3.15,0,5.71-2.55,5.71-5.71,0-3.15-2.55-5.71-5.71-5.71h0c-3.15,0-5.71,2.55-5.71,5.71h0Zm8.9,0c0,1.76-1.43,3.19-3.19,3.19-1.76,0-3.19-1.43-3.19-3.19,0-1.76,1.43-3.19,3.19-3.19h0c1.76,0,3.19,1.43,3.19,3.19h0Z"/><path class="e" d="M246.27,1222.39c-1.64-1.26-3.52-2.19-5.52-2.71-1.51-.46-3.08-.7-4.66-.7-1.58,.02-3.15,.26-4.66,.7-1.98,.59-3.85,1.5-5.52,2.71-.7,.55-1.11,1.39-1.13,2.27v5.7h22.62v-5.71c-.02-.89-.43-1.72-1.13-2.27h0Zm-1.38,5.46h-17.59v-3.14c0-.13,.06-.25,.15-.34,1.42-1.02,3.01-1.8,4.69-2.3,1.29-.38,2.63-.58,3.98-.6,1.33,0,2.64,.2,3.91,.59l.1,.03c1.67,.44,3.23,1.2,4.6,2.26,.1,.07,.16,.18,.18,.3v3.19Z"/><path class="e" d="M164.44,1142.39c0-1.39,1.13-2.51,2.51-2.51h64.1c1.39,0,2.51,1.13,2.51,2.51v42.73c0,1.39-1.13,2.51-2.51,2.51h-42.53l-1.52,2.51h44.05c2.78,0,5.03-2.25,5.03-5.03v-42.73c0-2.78-2.25-5.03-5.03-5.03h-64.1c-2.78,0-5.03,2.25-5.03,5.03v5.07c.85,.06,1.7,.21,2.51,.46v-5.53Z"/><path class="e" d="M175.19,1185.28c.48,.06,.96-.17,1.22-.58l5.39-8.6c.59-.93,1.82-1.21,2.76-.62,.03,.02,.06,.04,.09,.06,.87,.7,1.05,1.95,.42,2.87l-6.58,10.88c-.67,1.11-2.09,1.49-3.23,.89-.61-.33-1.37-.09-1.7,.52-.33,.61-.09,1.37,.52,1.7,2.32,1.23,5.2,.44,6.56-1.8l6.57-10.85c1.03-1.59,1-3.65-.08-5.2l15.94-16.24c.48-.5,.46-1.3-.04-1.78-.49-.47-1.27-.46-1.75,.02l-16.14,16.44c-.8-.32-1.67-.4-2.51-.24-1.22,.24-2.28,.97-2.94,2.02l-3.98,6.35-2.32-7.02-.08-.19c-1.87-4.29-6.33-5.11-13.88-5.11s-12,.81-13.89,5.12c0,0-.05,.11-.08,.18-.03,.09-.06,.17-.08,.26l-4.39,23.99c-.52,2.23,.86,4.46,3.09,4.99,.1,.02,.2,.04,.3,.06l.38,.06c.07,.01,.13,.02,.2,.02,.69-.02,1.24-.6,1.22-1.3-.02-.59-.45-1.09-1.03-1.2l-.38-.06c-.45-.07-.85-.32-1.1-.7-.26-.4-.34-.89-.22-1.35l4.37-23.91v-.04c1.04-2.34,3.19-3.6,11.6-3.6s10.56,1.27,11.57,3.58l3.16,9.55c.15,.46,.56,.8,1.04,.85h0Z"/><path class="e" d="M167.77,1177.23c-.69,0-1.26,.56-1.26,1.26v51h-5.66v-31.23h-2.51v31.23h-5.66v-51c0-.69-.56-1.26-1.26-1.26s-1.26,.56-1.26,1.26v53.52h18.85v-53.52c0-.69-.56-1.26-1.26-1.26h0Z"/><path class="e" d="M161.11,1166.27c4.16,0,7.54-3.38,7.54-7.54s-3.38-7.54-7.54-7.54-7.54,3.38-7.54,7.54c0,4.16,3.38,7.54,7.54,7.54h0Zm0-12.57c2.78,0,5.03,2.25,5.03,5.03s-2.25,5.03-5.03,5.03-5.03-2.25-5.03-5.03,2.25-5.03,5.03-5.03h0Z"/></g><g><path class="e" d="M18.79,558.46c-.55,.5-.59,1.36-.09,1.91,.03,.03,.06,.06,.09,.09,.5,.55,1.36,.59,1.91,.09,.03-.03,.06-.06,.09-.09,3.32-3.41,3.32-8.84,0-12.25-1.12-1.12-1.74-2.64-1.72-4.23,.02-1.47,.64-2.87,1.72-3.87,.57-.53,.6-1.43,.07-2-.53-.57-1.43-.6-2-.07-.02,.02-.05,.05-.07,.07-3.32,3.41-3.32,8.84,0,12.25,2.15,2.27,2.15,5.83,0,8.1h0Z"/><path class="e" d="M33.46,549.8c-.55,.5-.59,1.36-.09,1.91,.03,.03,.06,.06,.09,.09,.5,.55,1.36,.59,1.91,.09,.03-.03,.06-.06,.09-.09,3.32-3.41,3.32-8.84,0-12.25-1.12-1.12-1.74-2.64-1.72-4.23,.02-1.47,.64-2.87,1.72-3.87,.57-.53,.6-1.43,.07-2-.53-.57-1.43-.6-2-.07-.02,.02-.05,.05-.07,.07-3.32,3.41-3.32,8.84,0,12.25,2.15,2.27,2.15,5.83,0,8.1h0Z"/><path class="e" d="M49.09,558.46c-.55,.5-.59,1.36-.09,1.91,.03,.03,.06,.06,.09,.09,.5,.55,1.36,.59,1.91,.09,.03-.03,.06-.06,.09-.09,3.32-3.41,3.32-8.84,0-12.25-1.12-1.12-1.74-2.64-1.72-4.23,.02-1.47,.64-2.87,1.72-3.87,.57-.53,.6-1.43,.07-2-.53-.57-1.43-.6-2-.07-.02,.02-.05,.05-.07,.07-3.32,3.41-3.32,8.84,0,12.25,2.15,2.27,2.15,5.83,0,8.1h0Z"/><path class="e" d="M89.17,601.88c-.02-11.15-8.77-20.33-19.91-20.87v-10.15H0v66.38c0,3.18,2.59,5.76,5.77,5.77H63.49c3.18,0,5.76-2.59,5.77-5.77v-14.48c11.14-.54,19.89-9.72,19.91-20.87h0Zm-22.8,35.35c0,1.59-1.29,2.89-2.89,2.89H5.77c-1.59,0-2.89-1.29-2.89-2.89v-63.49h63.49v63.49h0Zm2.89-17.37v-35.97c9.93,.55,17.54,9.05,16.99,18.98-.51,9.17-7.83,16.49-16.99,16.99h0Z"/></g><path class="e" d="M366.7,320c-21.44,0-38.82,17.38-38.82,38.82s17.38,38.82,38.82,38.82,38.82-17.38,38.82-38.82c-.02-21.43-17.39-38.8-38.82-38.82h0Zm34.7,27.39h-14c-1.26,0-2.28-1.02-2.28-2.28s1.02-2.28,2.28-2.28h12.14c.72,1.48,1.34,3.01,1.86,4.57h0Zm-48.97,2.3h20.55c1.26,0,2.28,1.02,2.28,2.28s-1.02,2.28-2.28,2.28h-42.52c.84-6.69,3.52-13.02,7.75-18.27h22.49c1.26,0,2.28,1.02,2.28,2.28s-1.02,2.28-2.28,2.28h-8.28c-2.52,0-4.57,2.05-4.57,4.57s2.04,4.57,4.57,4.57h0Zm-20.43,20.55h15.44c1.26,0,2.28,1.02,2.28,2.28s-1.02,2.28-2.28,2.28h-13.59c-.72-1.48-1.34-3-1.85-4.57h0Zm34.7,25.12c-13.05,0-25.1-6.97-31.62-18.27h12.36c2.52,0,4.57-2.04,4.57-4.57s-2.04-4.57-4.57-4.57h-16.12c-.77-2.98-1.16-6.05-1.16-9.14,0-.77,.03-1.53,.08-2.28h42.74c2.52,0,4.57-2.05,4.57-4.57s-2.04-4.57-4.57-4.57h-20.55c-1.26,0-2.28-1.02-2.28-2.28s1.02-2.28,2.28-2.28h8.28c2.52,0,4.57-2.05,4.57-4.57s-2.04-4.57-4.57-4.57h-20.5c13.84-14.64,36.93-15.29,51.57-1.44,2.57,2.43,4.77,5.22,6.54,8.28h-10.92c-2.52,0-4.57,2.05-4.57,4.57s2.04,4.57,4.57,4.57h14.68c.77,2.99,1.16,6.06,1.16,9.15,0,.77-.03,1.53-.08,2.28h-20.19c-2.52,0-4.57,2.05-4.57,4.57s2.04,4.57,4.57,4.57h2.57c1.26,0,2.28,1.02,2.28,2.28s-1.02,2.28-2.28,2.28h-20.55c-2.52,0-4.57,2.05-4.57,4.57s2.04,4.57,4.57,4.57h28.21c-6.88,7.29-16.47,11.42-26.5,11.42h0Zm18.84-27.41h-2.57c-1.26,0-2.28-1.02-2.28-2.28s1.02-2.28,2.28-2.28h19.97c-.84,6.69-3.52,13.02-7.75,18.27h-30.21c-1.26,0-2.28-1.02-2.28-2.28s1.02-2.28,2.28-2.28h20.55c2.52,0,4.57-2.04,4.57-4.57s-2.04-4.57-4.57-4.57h0Z"/><g><path class="e" d="M797.37,331.86v-7.25h-8.53l-10-8.38-10,8.38h-8.53v7.25l-9.63,7.97v39.63h56.33v-39.63l-9.63-7.97h0Zm0,1.93l7.79,6.45-7.79,7.79v-14.24h0Zm-18.53-15.62l7.69,6.44h-15.38l7.69-6.44h0Zm-17.05,7.93h34.09v23.41l-8.93,8.93c-4.69-3.95-11.54-3.95-16.23,0l-8.93-8.93v-23.41h0Zm-1.48,7.69v14.24l-7.79-7.79,7.79-6.45h0Zm-8.14,8.2l17.47,17.47-17.47,17.47h-.01v-34.93s0,0,0,0h0Zm1.05,36s0,0,0,0h0l17.76-17.76c4.34-4.33,11.38-4.33,15.72,0l17.76,17.76h-51.24Zm52.28-1.05l-17.47-17.47,17.47-17.47h.01v34.93s0,0,0,0h0Z"/><path class="e" d="M777.16,350.41c.56,.09,1.12,.14,1.68,.14,1.52,0,3.02-.36,4.37-1.05,.38-.16,.56-.59,.4-.97-.16-.38-.59-.56-.97-.4-.03,.01-.07,.03-.1,.05-4.01,2.05-8.92,.45-10.97-3.56-2.05-4.01-.45-8.92,3.56-10.97,1.32-.67,2.79-.97,4.27-.87,4.34,.38,7.65,4.04,7.59,8.4v1.96c0,.41-.33,.74-.74,.74h-.47c-1.38,0-2.49-1.12-2.49-2.49v-.47c0-2.46-1.98-4.47-4.45-4.48-2.46,0-4.47,1.98-4.48,4.45,0,2.46,1.98,4.47,4.45,4.48,1.44,0,2.79-.68,3.63-1.84,.73,1.15,1.99,1.84,3.34,1.84h.47c1.23,0,2.22-1,2.22-2.22v-1.96c.06-5.14-3.86-9.45-8.98-9.88-5.31-.39-9.92,3.6-10.31,8.91-.36,4.95,3.09,9.36,7.98,10.2h0Zm1.68-6.53c-1.64,0-2.96-1.33-2.96-2.96s1.33-2.96,2.96-2.96,2.96,1.33,2.96,2.96-1.33,2.96-2.96,2.96h0Z"/></g><path class="e" d="M885.85,1150.17h0c3.26-3.21,2.43-6.05,1.88-7.19-1.32-2.53-4.13-3.92-6.94-3.41-2.29,.53-4.45,2.01-6.31,3.8,.93-2.48,1.44-5.05,.94-7.28-.75-2.77-3.2-4.74-6.07-4.87-1.22-.01-4.12,.43-5.66,4.68h-.01c-3.17-3.23-5.97-2.44-7.1-1.9-2.55,1.31-3.96,4.13-3.49,6.96,.54,2.09,1.61,4.01,3.1,5.57-2.28-1.03-4.77-1.48-7.27-1.34-2.59,.25-5.07,3.06-5.3,6.01-.1,1.3,.16,4.3,4.31,5.84,0,0,0,0,0,.01-3.03,2.95-2.58,5.53-1.99,6.87,1.17,2.31,3.54,3.78,6.13,3.79,.29,0,.58-.02,.87-.07,2.3-.35,4.77-1.85,6.99-3.7-3.43,6.03-5.06,12.92-4.71,19.85,.02,.37,.32,.66,.69,.66h.03c.38-.02,.68-.34,.66-.73h0c-.34-7.05,1.43-14.04,5.09-20.07-.99,3.14-1.55,6.46-1.06,8.94,.69,2.76,3.1,4.75,5.94,4.9h.15c1.34,0,4.14-.54,5.64-4.69h.01c3.12,3.19,5.88,2.45,6.98,1.95,2.57-1.31,4.02-4.12,3.61-6.98-.42-2.33-2.08-4.52-4.14-6.43,1.5,.5,3.08,.78,4.66,.82,.74,0,1.48-.08,2.19-.27,2.77-.85,4.71-3.36,4.83-6.26,0-1.19-.51-3.96-4.66-5.46h0Zm-.53,10.38c-4.62,1.26-12.23-3.01-15.6-5.44-.31-.23-.74-.16-.97,.15-.23,.31-.16,.74,.15,.97h0c1.64,1.17,3.37,2.22,5.17,3.13,3.36,2.28,6.94,5.37,7.53,8.66,.3,2.24-.83,4.42-2.82,5.47-1.94,.89-4.13,0-6.17-2.52-.24-.3-.68-.34-.98-.1-.12,.09-.2,.22-.24,.37-.83,3.21-2.5,4.95-4.78,4.87-2.19-.13-4.06-1.65-4.62-3.78-.81-4.13,1.72-11.32,4.01-15.05,.02-.03,.06-.1,.06-.1,.08-.12,.16-.25,.23-.36,.21-.32,.12-.75-.2-.96s-.75-.12-.96,.2l-.02,.03c-2.31,3.74-8.05,9.52-12.38,10.18-2.27,.26-4.46-.9-5.52-2.92-.84-1.9,.06-4.06,2.55-6.07,.3-.24,.34-.68,.09-.98-.09-.11-.22-.19-.36-.23-3.08-.79-4.67-2.49-4.49-4.77,.17-2.24,2.14-4.54,4.05-4.73,4.03-.39,9.3,1.84,15.65,6.65,.31,.23,.74,.17,.97-.13,.23-.31,.17-.74-.13-.97-1.59-1.22-3.25-2.34-4.97-3.37-3.01-2.41-5.54-5.28-6.12-8.07-.34-2.2,.76-4.38,2.73-5.41,1.98-.94,4.21-.06,6.27,2.48,.24,.3,.68,.34,.98,.1,.12-.09,.2-.22,.24-.37,.82-3.17,2.49-4.9,4.67-4.86,2.23,.13,4.13,1.65,4.73,3.79,1.24,5.5-4.88,14.02-6.12,15.67-.23,.31-.17,.74,.14,.97s.74,.17,.97-.14c1.2-1.61,2.3-3.29,3.29-5.03,2.41-3.13,5.56-6.2,8.76-6.94,2.18-.37,4.35,.71,5.38,2.66,.98,2.01,.11,4.26-2.45,6.34-.3,.24-.35,.68-.1,.98,.09,.12,.22,.2,.37,.24,3.11,.8,4.83,2.4,4.84,4.5-.12,2.27-1.64,4.23-3.81,4.91h0Z"/><g><path class="e" d="M1161.85,476.9h-48.19v-3.32c0-.92-.74-1.66-1.66-1.66s-1.66,.74-1.66,1.66v3.32h-48.19c-.92,0-1.66,.74-1.66,1.66s.74,1.66,1.66,1.66h48.19v11.65h-9.16l-2.98,4.97h-45.4l-11.14-11.15c-.66-.64-1.71-.62-2.35,.04-.62,.64-.62,1.66,0,2.31l11.14,11.15v15.93c0,.92,.74,1.66,1.66,1.66s1.66-.74,1.66-1.66v-14.96h36.56v18.3c0,9.09,7.84,17.54,16.62,19.95h33.27c17.53,0,13.71-19.65,13.71-19.65,0,0-4.55-18.98-27.04-20.25l-4.02-6.65h-9.21v-11.65h48.19c.92,0,1.66-.74,1.66-1.66s-.74-1.66-1.66-1.66h0Zm-37.8,23.34l.91,1.5,1.75,.1c19.16,1.08,23.62,16.29,23.97,17.63,.02,.11,.05,.27,.09,.65,0,0,0,.01-.02,.01h-19.47l-7.87-17.33c-.35-.85-1.32-1.25-2.17-.9s-1.25,1.32-.9,2.17c.01,.03,.03,.07,.05,.1l8.75,19.28h21.82c.12,3.04-.77,6.03-2.53,8.51-1.75,2.11-4.43,3.13-8.21,3.13h-32.8c-7.63-2.29-13.76-9.66-13.76-16.62v-18.28h6.42l.97-1.61,2.02-3.37h17.93l3.05,5.05h0Z"/><path class="e" d="M1148.49,551.68h-11.5l-3.99-9.97h-3.58l3.99,9.97h-21.35l3.99-9.97h-3.58l-3.99,9.97h-26.46v3.32h66.47c6.42,0,11.62-5.21,11.63-11.63h-3.32c0,4.59-3.72,8.3-8.31,8.31h0Z"/></g><path class="e" d="M162.5,916.47l-9.07-16.49,.85-1.81c.19-.41,.01-.9-.4-1.09-.41-.19-.9-.01-1.09,.4l-.88,1.89-18.23,3.62c-.44,.1-.72,.53-.62,.98,.09,.43,.51,.71,.94,.63l1.16-.23,5.54,3.5c-.25,.28-.27,.7-.05,1.01,.27,.36,.78,.44,1.15,.18h0l.42-.31,4.35,2.07-4.99,10.68h-15.8c-.01-.06-.03-.13-.06-.18l-6.56-11.48c-.15-.26-.42-.41-.71-.41h-13.94c-.45,0-.82,.37-.82,.82s.37,.82,.82,.82h13.46l5.96,10.44h-5.77l-8.53,8.7-.89,1.01-.05,.19c-.6,2.28-.91,4.62-.91,6.97,0,9.88,5.41,19.08,13.78,23.44l.18,.09h21.27l.18-.09c8.37-4.35,13.78-13.55,13.78-23.44,0-2.34-.3-4.68-.9-6.94l-.05-.18-.89-1.04-8.54-8.71h-3.22l4.66-9.97,4.59,2.19,.03,.43c.03,.43,.39,.77,.82,.77h.05c.35-.02,.64-.26,.73-.6l6.29,2.01,.51,.94c.2,.4,.7,.57,1.1,.36,.4-.2,.57-.7,.36-1.1,0-.02-.02-.03-.03-.05h0Zm-7.17,21.89c0,9.21-4.99,17.78-12.73,21.89h-20.47c-7.74-4.11-12.72-12.68-12.72-21.89,0-2.15,.27-4.29,.8-6.37l.4-.45c3.76,2.98,9.05,3.07,12.91,.21,2.49,5.15,8.68,7.31,13.83,4.82,2.08-1,3.76-2.67,4.78-4.75,3.67,2.64,8.61,2.68,12.31,.09l.08,.1c.53,2.07,.8,4.21,.79,6.34h0Zm-2-7.66c-1.47,.98-3.2,1.5-4.97,1.5-2.23,.01-4.37-.81-6.02-2.32l-.94-.87-.4,1.22c-1.63,4.51-6.6,6.85-11.11,5.22-2.46-.89-4.39-2.84-5.25-5.31l-.4-1.23-.94,.89c-3.2,2.97-8.08,3.21-11.55,.56l7.09-7.23h27.06l7.43,7.57h0Zm-4.2-29.09l-7.05,5.2-4.57-2.89s0,0,0-.01h0l11.61-2.31s.02,0,0,.01h0Zm-5.43,6.04l8.14-6h.01l.65,10.19-8.81-4.19h0Zm10.49,4.93l-.56-8.8s0-.02,.02,0l5.74,10.44s0,0,0,.01h0l-5.18-1.66Z"/></g></g></g></svg>